<?xml version="1.0" encoding="utf-8"?>
<!-- Generator: Adobe Illustrator 27.4.1, SVG Export Plug-In . SVG Version: 6.00 Build 0)  -->
<svg version="1.1" id="Layer_1" xmlns="http://www.w3.org/2000/svg" xmlns:xlink="http://www.w3.org/1999/xlink" x="0px" y="0px"
	 viewBox="0 0 48 48" style="enable-background:new 0 0 48 48;" xml:space="preserve">
<style type="text/css">
	.st0{stroke:#000000;stroke-miterlimit:10;}
</style>
<path class="st0" d="M19.9,11.2L19.9,11.2c4.5,0,9,0,13.5,0c0.3,0,0.4,0.1,0.3,0.4c-0.5,3.2-1,6.4-1.4,9.6c-0.1,0.4-0.1,0.8-0.2,1.1
	c0,0.2-0.1,0.4-0.3,0.5c-5.1,3.5-10.3,7.1-15.4,10.7c-0.1,0.1-0.3,0.2-0.4,0.2c-0.1,0-0.2,0-0.3,0c-2.1-0.7-4.3-1.4-6.4-2.1
	c-0.3-0.1-0.4-0.2-0.4-0.6c0-1.1,0-2.2,0-3.3c0-1.1,0-2.2,0-3.3c0-0.2,0.1-0.4,0.2-0.6c2.7-3.2,5.4-6.5,8.1-9.7
	c0.8-0.9,1.5-1.8,2.3-2.7C19.5,11.3,19.7,11.2,19.9,11.2 M19.9,9.2L19.9,9.2c-0.8,0-1.5,0.3-2,0.9c-0.5,0.7-1.1,1.3-1.6,2l-0.6,0.8
	L14,14.8c-2.2,2.6-4.3,5.2-6.4,7.8c-0.4,0.5-0.7,1.2-0.7,1.9c0,0.8,0,1.6,0,2.4v0.9v0.9c0,0.8,0,1.6,0,2.3c0,1.2,0.7,2.1,1.8,2.5
	c2.1,0.7,4.2,1.4,6.4,2.1c0.3,0.1,0.6,0.2,0.9,0.2c0.6,0,1.1-0.2,1.6-0.5c5.1-3.6,10.3-7.1,15.4-10.7c0.7-0.5,1.1-1.1,1.2-2
	c0-0.3,0.1-0.6,0.1-1l0-0.1l0.6-3.8l0.9-5.9c0-0.3,0.2-1.2-0.5-1.9c-0.7-0.8-1.5-0.8-1.8-0.8h-4.6C25.8,9.2,22.8,9.2,19.9,9.2
	L19.9,9.2L19.9,9.2z"/>
<path class="st0" d="M32.6,25.2c0.1,0,0.2,0.1,0.2,0.2c0.8,1.2,1.6,2.4,2.4,3.6c0.2,0.4,0.5,0.7,0.8,1.1c0.2,0.2,0.1,0.3-0.1,0.5
	c-2.2,1.6-4.4,3.1-6.5,4.7c-0.8,0.5-1.5,1.1-2.3,1.6C27,36.9,26.9,37,26.8,37c0,0,0,0,0,0c-0.1,0-0.1,0-0.2-0.1
	c-2.4-0.8-4.8-1.6-7.1-2.3c-0.1,0-0.2,0-0.2-0.1c0-0.1,0.1-0.2,0.2-0.2c4.1-2.8,8.2-5.6,12.2-8.4c0.3-0.2,0.6-0.4,0.8-0.6
	C32.5,25.2,32.6,25.2,32.6,25.2 M32.6,23.2c-0.5,0-1,0.2-1.4,0.5c-0.2,0.1-0.3,0.2-0.5,0.3l-0.2,0.2l-1.7,1.2
	c-3.5,2.4-7,4.8-10.5,7.2c-1.1,0.6-1.2,1.7-1.1,2.4c0.1,0.4,0.4,1.3,1.6,1.6l7.1,2.3l0.2,0.1l0.1,0l0.1,0l0.1,0l0.2,0h0.2
	c0.8,0,1.3-0.4,1.5-0.5l1.2-0.9l1.1-0.8l1.3-1c1.7-1.2,3.5-2.5,5.2-3.7c0.7-0.5,0.9-1.1,1-1.5c0.1-0.4,0-1.1-0.5-1.8
	c-0.2-0.2-0.3-0.5-0.5-0.7l-0.2-0.3l-0.5-0.8c-0.6-0.9-1.2-1.9-1.9-2.8S33.1,23.2,32.6,23.2L32.6,23.2L32.6,23.2z"/>
<path class="st0" d="M36.6,11.2c0.2,0,0.4,0,0.5,0.3c1.5,4.8,3,9.6,4.5,14.4c0.1,0.2,0,0.3-0.2,0.4c-1,0.8-2,1.6-3,2.4
	c-0.1,0.1-0.2,0.1-0.2,0.1c-0.1,0-0.1,0-0.2-0.1c-1.2-1.7-2.5-3.4-3.7-5c-0.1-0.1-0.2-0.2-0.1-0.4c0.2-0.9,0.3-1.9,0.5-2.8
	c0.5-3,1-5.9,1.5-8.9C36.3,11.4,36.3,11.2,36.6,11.2C36.6,11.2,36.6,11.2,36.6,11.2 M36.6,9.2h-0.1c-0.9,0-2,0.6-2.2,2.1l-1.5,8.9
	l-0.3,2l-0.2,0.9c-0.1,0.7,0.1,1.3,0.5,1.9l0.6,0.9c1,1.4,2,2.8,3.1,4.2c0.6,0.8,1.4,1,1.8,1c0.5,0,1-0.2,1.5-0.5c1-0.8,2-1.6,3-2.4
	c0.8-0.6,1.2-1.6,0.8-2.6c-1.5-4.8-3-9.6-4.5-14.4C38.7,9.8,37.8,9.2,36.6,9.2L36.6,9.2L36.6,9.2z"/>
</svg>
